<svg xmlns="http://www.w3.org/2000/svg" viewBox="0 0 260 265" fill="none" stroke="#2b3140" stroke-width="12" stroke-linejoin="round" stroke-linecap="round">
  <!-- F: top arm -->
  <polygon points="70,35 134,71 102,89 38,53" />
  <polygon points="70,35 134,71 134,113 70,77" />
  <polygon points="70,35 38,53 38,95 70,77" />

  <!-- F: stem -->
  <polygon points="38,53 70,71 38,89 6,71" />
  <polygon points="38,53 70,71 70,166 38,148" />
  <polygon points="38,53 6,71 6,166 38,148" />

  <!-- F: middle arm -->
  <polygon points="60,140 124,176 92,194 28,158" />
  <polygon points="60,140 124,176 124,216 60,180" />

  <!-- L: stem -->
  <polygon points="210,15 242,33 210,51 178,33" />
  <polygon points="210,15 242,33 242,223 210,205" />
  <polygon points="210,15 178,33 178,223 210,205" />

  <!-- L: foot -->
  <polygon points="178,175 242,211 210,229 146,193" />
  <polygon points="178,175 242,211 242,249 178,213" />
</svg>
